<?xml version="1.0" encoding="UTF-8"?>
<svg width="56px" height="77px" viewBox="0 0 56 77" version="1.1" xmlns="http://www.w3.org/2000/svg" xmlns:xlink="http://www.w3.org/1999/xlink">
    <!-- Generator: Sketch 44.1 (41455) - http://www.bohemiancoding.com/sketch -->
    <title>Slice</title>
    <desc>Created with Sketch.</desc>
    <defs></defs>
    <g id="Page-1" stroke="none" stroke-width="1" fill="none" fill-rule="evenodd">
        <g id="noun_219399_cc" transform="translate(-1.000000, 7.000000)" stroke="#FFFFFF" fill-rule="nonzero" fill="#000000">
            <path d="M56.3505882,54.5602165 C56.3505882,53.9634641 56.0258824,53.4519621 55.62,53.1109608 L55.7011765,51.8322057 C55.7011765,51.8322057 55.7011765,51.7469553 55.7011765,51.7469553 C55.7011765,50.1271989 54.4835294,48.8484438 53.1035294,48.8484438 L51.8047059,48.8484438 L51.8047059,25.1488498 C51.8047059,18.4993234 49.2882353,12.1907984 44.7423529,7.41677943 C40.1964706,2.64276049 34.1894118,0 27.8576471,0 L25.5035294,0 C23.2305882,0 21.3635294,1.53450609 20.7141176,3.66576455 C15.4376471,4.0067659 10.3235294,6.30852503 6.18352941,10.2300406 C6.18352941,10.2300406 6.18352941,10.2300406 6.18352941,10.2300406 C6.18352941,10.2300406 6.10235294,10.2300406 6.10235294,10.3152909 C6.10235294,10.3152909 6.10235294,10.3152909 6.02117647,10.4005413 C6.02117647,10.4005413 6.02117647,10.4005413 5.94,10.4857916 C5.94,10.4857916 5.94,10.5710419 5.85882353,10.5710419 C5.85882353,10.5710419 5.85882353,10.6562923 5.77764706,10.6562923 C5.77764706,10.6562923 5.77764706,10.7415426 5.69647059,10.7415426 C5.69647059,10.7415426 5.69647059,10.826793 5.69647059,10.826793 C5.69647059,10.826793 5.69647059,10.9120433 5.69647059,10.9120433 C5.69647059,10.9120433 5.69647059,10.9972936 5.69647059,10.9972936 C5.69647059,10.9972936 5.69647059,11.082544 5.69647059,11.082544 C5.69647059,11.082544 5.69647059,11.1677943 5.69647059,11.1677943 C5.69647059,11.1677943 5.69647059,11.2530447 5.69647059,11.2530447 C5.69647059,11.2530447 5.69647059,11.338295 5.69647059,11.338295 C5.69647059,11.338295 5.69647059,11.4235453 5.69647059,11.4235453 C5.69647059,11.4235453 5.69647059,11.5087957 5.69647059,11.5087957 C5.69647059,11.5087957 5.69647059,11.594046 5.69647059,11.594046 C5.69647059,11.594046 5.69647059,11.594046 5.69647059,11.594046 L5.69647059,33.6738836 L5.69647059,33.6738836 L5.69647059,27.1948579 C5.69647059,26.2571042 4.96588235,25.4898512 4.07294118,25.4898512 C3.18,25.4898512 2.44941176,26.2571042 2.44941176,27.1948579 L2.44941176,59.5899865 L2.36823529,59.5899865 C1.47529412,59.5899865 0.744705882,60.3572395 0.744705882,61.2949932 C0.744705882,62.232747 1.47529412,63 2.36823529,63 L5.61529412,63 C6.50823529,63 7.23882353,62.232747 7.23882353,61.2949932 C7.23882353,60.3572395 6.50823529,59.5899865 5.61529412,59.5899865 L5.53411765,59.5899865 L5.53411765,36.9133965 L5.53411765,36.9133965 L5.53411765,41.6874154 C5.53411765,41.7726658 5.53411765,41.7726658 5.53411765,41.8579161 C5.53411765,41.8579161 5.53411765,41.8579161 5.53411765,41.9431664 C5.53411765,41.9431664 5.53411765,42.0284168 5.53411765,42.0284168 C5.53411765,42.0284168 5.53411765,42.1136671 5.53411765,42.1136671 C5.53411765,42.1136671 5.53411765,42.1989175 5.53411765,42.1989175 C5.53411765,42.1989175 5.53411765,42.2841678 5.53411765,42.2841678 C5.53411765,42.2841678 5.53411765,42.3694181 5.53411765,42.3694181 C5.53411765,42.3694181 5.53411765,42.4546685 5.53411765,42.4546685 C5.53411765,42.5399188 5.53411765,42.5399188 5.61529412,42.6251691 C5.61529412,42.6251691 5.61529412,42.6251691 5.61529412,42.7104195 C5.61529412,42.7104195 5.61529412,42.7956698 5.69647059,42.7956698 C5.69647059,42.7956698 5.69647059,42.7956698 5.69647059,42.8809202 C5.69647059,42.8809202 5.69647059,42.9661705 5.77764706,42.9661705 C5.77764706,42.9661705 5.77764706,42.9661705 5.77764706,43.0514208 C5.77764706,43.0514208 5.85882353,43.1366712 5.85882353,43.1366712 C5.85882353,43.1366712 5.85882353,43.1366712 5.85882353,43.1366712 C5.85882353,43.1366712 5.94,43.2219215 5.94,43.2219215 C5.94,43.2219215 5.94,43.2219215 5.94,43.2219215 C5.94,43.2219215 6.02117647,43.3071719 6.02117647,43.3071719 C6.02117647,43.3071719 6.02117647,43.3071719 6.02117647,43.3071719 C6.02117647,43.3071719 6.10235294,43.3924222 6.10235294,43.3924222 L6.10235294,43.3924222 L6.10235294,43.3924222 L14.0576471,47.9959405 L14.0576471,59.5899865 L13.9764706,59.5899865 C13.0835294,59.5899865 12.3529412,60.3572395 12.3529412,61.2949932 C12.3529412,62.232747 13.0835294,63 13.9764706,63 L17.2235294,63 C18.1164706,63 18.8470588,62.232747 18.8470588,61.2949932 C18.8470588,60.3572395 18.1164706,59.5899865 17.2235294,59.5899865 L17.1423529,59.5899865 L17.1423529,49.7009472 L20.7952941,51.8322057 C21.0388235,52.0027064 21.2823529,52.0879567 21.5258824,52.0879567 C21.7694118,52.0879567 22.0941176,52.0027064 22.2564706,51.8322057 L25.9094118,49.7009472 L25.9094118,59.5899865 L25.8282353,59.5899865 C24.9352941,59.5899865 24.2047059,60.3572395 24.2047059,61.2949932 C24.2047059,62.232747 24.9352941,63 25.8282353,63 L29.0752941,63 C29.9682353,63 30.6988235,62.232747 30.6988235,61.2949932 C30.6988235,60.3572395 29.9682353,59.5899865 29.0752941,59.5899865 L28.9941176,59.5899865 L28.9941176,47.8254398 L36.9494118,43.2219215 L36.9494118,43.2219215 L36.9494118,43.2219215 C37.0305882,43.2219215 37.0305882,43.1366712 37.0305882,43.1366712 C37.0305882,43.1366712 37.0305882,43.1366712 37.0305882,43.1366712 C37.0305882,43.1366712 37.1117647,43.0514208 37.1117647,43.0514208 C37.1117647,43.0514208 37.1117647,43.0514208 37.1117647,43.0514208 C37.1117647,43.0514208 37.1929412,42.9661705 37.1929412,42.9661705 C37.1929412,42.9661705 37.1929412,42.9661705 37.1929412,42.9661705 C37.1929412,42.9661705 37.2741176,42.8809202 37.2741176,42.8809202 C37.2741176,42.8809202 37.2741176,42.8809202 37.2741176,42.7956698 C37.2741176,42.7956698 37.2741176,42.7104195 37.3552941,42.7104195 C37.3552941,42.7104195 37.3552941,42.7104195 37.3552941,42.6251691 C37.3552941,42.6251691 37.3552941,42.5399188 37.4364706,42.5399188 C37.4364706,42.5399188 37.4364706,42.5399188 37.4364706,42.4546685 C37.4364706,42.4546685 37.5176471,42.3694181 37.5176471,42.2841678 C37.5176471,42.2841678 37.5176471,42.1989175 37.5176471,42.1989175 C37.5176471,42.1989175 37.5176471,42.1136671 37.5176471,42.1136671 C37.5176471,42.1136671 37.5176471,42.0284168 37.5176471,42.0284168 C37.5176471,42.0284168 37.5176471,41.9431664 37.5176471,41.9431664 C37.5176471,41.9431664 37.5176471,41.8579161 37.5176471,41.8579161 C37.5176471,41.8579161 37.5176471,41.7726658 37.5176471,41.7726658 C37.5176471,41.7726658 37.5176471,41.7726658 37.5176471,41.6874154 C37.5176471,41.6021651 37.5176471,41.6021651 37.5176471,41.5169147 L37.5176471,36.7428958 L37.5176471,36.7428958 L37.5176471,59.5899865 L37.4364706,59.5899865 C36.5435294,59.5899865 35.8129412,60.3572395 35.8129412,61.2949932 C35.8129412,62.232747 36.5435294,63 37.4364706,63 L40.6835294,63 C41.5764706,63 42.3070588,62.232747 42.3070588,61.2949932 C42.3070588,60.3572395 41.5764706,59.5899865 40.6835294,59.5899865 L41.5764706,59.5899865 L41.5764706,27.1096076 C41.5764706,26.1718539 40.8458824,25.4046008 39.9529412,25.4046008 C39.06,25.4046008 38.3294118,26.1718539 38.3294118,27.1096076 L38.3294118,33.5886333 L38.3294118,33.5886333 L38.3294118,11.5087957 C38.3294118,10.9120433 38.0047059,10.4005413 37.5988235,10.0595399 C33.7835294,6.47902571 29.0752941,4.26251691 24.2047059,3.75101488 C24.5294118,3.49526387 24.9352941,3.32476319 25.4223529,3.32476319 L27.7764706,3.32476319 C33.2964706,3.32476319 38.4917647,5.62652233 42.4694118,9.71853857 C46.3658824,13.8105548 48.5576471,19.3518268 48.5576471,25.1488498 L48.5576471,48.8484438 L47.34,48.8484438 C45.8788235,48.8484438 44.7423529,50.1271989 44.7423529,51.7469553 C44.7423529,51.7469553 44.7423529,51.8322057 44.7423529,51.8322057 L44.8235294,53.0257104 C44.3364706,53.2814614 44.0117647,53.8782138 44.0117647,54.4749662 C44.0117647,55.2422192 44.4176471,55.8389716 45.0670588,56.0094723 L45.3105882,60.0162382 C45.3105882,61.5507442 46.4470588,62.8294993 47.7458824,62.8294993 L53.0223529,62.8294993 C53.7529412,62.8294993 54.24,62.488498 54.4835294,62.232747 C55.1329412,61.5507442 55.0517647,60.7834912 55.0517647,60.1867388 C55.0517647,60.1014885 55.0517647,60.1014885 55.0517647,60.0162382 L55.2952941,56.0094723 C55.9447059,55.8389716 56.3505882,55.2422192 56.3505882,54.5602165 Z M22.0129412,7.07577808 C25.5847059,7.07577808 28.9129412,8.0135318 31.9976471,9.97428958 L25.1788235,9.97428958 L12.6776471,9.97428958 L12.0282353,9.97428958 C15.0317647,8.0135318 18.4411765,7.07577808 22.0129412,7.07577808 Z M16.0058824,25.4898512 C15.1129412,25.4898512 14.3823529,26.2571042 14.3823529,27.1948579 L14.3823529,33.6738836 L14.22,33.6738836 L14.22,13.2990528 L18.4411765,13.2990528 L18.4411765,33.6738836 L17.5482353,33.6738836 L17.5482353,27.1948579 C17.6294118,26.2571042 16.8988235,25.4898512 16.0058824,25.4898512 Z M23.6364706,33.5886333 L21.6882353,33.5886333 L21.6882353,13.2138024 L23.6364706,13.2138024 L23.6364706,33.5886333 Z M14.3011765,36.9133965 L14.4635294,36.9133965 L14.4635294,40.067659 L14.3011765,40.067659 L14.3011765,36.9133965 Z M17.6294118,36.9133965 L18.5223529,36.9133965 L18.5223529,40.067659 L17.6294118,40.067659 L17.6294118,36.9133965 Z M21.6882353,36.9133965 L23.6364706,36.9133965 L23.6364706,40.067659 L21.6882353,40.067659 L21.6882353,36.9133965 Z M14.3823529,43.3924222 L14.3823529,44.0744249 L13.2458824,43.3924222 L14.3823529,43.3924222 Z M17.6294118,43.3924222 L25.1788235,43.3924222 L30.6988235,43.3924222 L22.0129412,48.4221922 L17.5482353,45.864682 L17.6294118,43.3924222 L17.6294118,43.3924222 Z M48.4764706,59.5899865 L48.2329412,56.1799729 L52.2105882,56.1799729 L51.9670588,59.5899865 L48.4764706,59.5899865 Z M47.9082353,52.173207 L52.4541176,52.173207 L52.3729412,52.9404601 L47.9082353,52.9404601 L47.9082353,52.173207 Z" id="Shape"></path>
        </g>
    </g>
</svg>