<?xml version="1.0" encoding="UTF-8"?>
<svg width="160px" height="226px" viewBox="0 0 160 226" version="1.1" xmlns="http://www.w3.org/2000/svg" xmlns:xlink="http://www.w3.org/1999/xlink">
    <!-- Generator: Sketch 44.1 (41455) - http://www.bohemiancoding.com/sketch -->
    <title>Slice</title>
    <desc>Created with Sketch.</desc>
    <defs></defs>
    <g id="Page-1" stroke="none" stroke-width="1" fill="none" fill-rule="evenodd">
        <g id="noun_219411_cc" transform="translate(-1.000000, 1.000000)" stroke="#FFFFFF" stroke-width="2" fill="#000000" fill-rule="nonzero">
            <path d="M160.402597,83.4814815 C160.402597,83.1833333 160.402597,83.1833333 160.402597,83.4814815 C160.402597,83.1833333 160.402597,82.8851852 160.402597,82.8851852 C160.402597,82.8851852 160.402597,82.587037 160.402597,82.587037 C160.402597,82.587037 160.402597,82.2888889 160.402597,82.2888889 C160.402597,82.2888889 160.402597,81.9907407 160.402597,81.9907407 C160.402597,81.9907407 160.402597,81.6925926 160.402597,81.6925926 C160.402597,81.6925926 160.402597,81.3944444 160.402597,81.3944444 C160.402597,81.3944444 160.402597,81.0962963 160.402597,81.0962963 C160.402597,81.0962963 160.402597,80.7981481 160.402597,80.7981481 C160.402597,80.7981481 160.402597,80.5 160.402597,80.5 C160.402597,80.5 160.402597,80.2018519 160.103896,80.2018519 C160.103896,80.2018519 160.103896,79.9037037 160.103896,79.9037037 C160.103896,79.9037037 160.103896,79.6055556 159.805195,79.6055556 C159.805195,79.6055556 159.805195,79.6055556 159.506494,79.3074074 C159.506494,79.3074074 159.506494,79.0092593 159.207792,79.0092593 C159.207792,79.0092593 159.207792,79.0092593 158.909091,78.7111111 C158.61039,78.412963 158.909091,78.7111111 158.61039,78.412963 C158.61039,78.412963 158.311688,78.412963 158.311688,78.1148148 C158.311688,78.1148148 158.311688,78.1148148 158.311688,78.1148148 C138.896104,63.8037037 110.519481,55.4555556 80.6493506,55.4555556 C79.4545455,55.4555556 78.5584416,55.4555556 77.3636364,55.4555556 L77.3636364,31.6037037 C77.3636364,22.3611111 75.5714286,15.5037037 71.3896104,10.4351852 C66.3116883,3.87592593 57.6493506,0.298148148 46,0.298148148 L6.57142857,0.298148148 C3.28571429,0.298148148 0.597402597,2.98148148 0.597402597,6.26111111 C0.597402597,9.54074074 3.28571429,12.2240741 6.57142857,12.2240741 L40.025974,12.2240741 L40.025974,25.9388889 L6.57142857,25.9388889 C3.28571429,25.9388889 0.597402597,28.6222222 0.597402597,31.9018519 C0.597402597,35.1814815 3.28571429,37.8648148 6.57142857,37.8648148 L40.025974,37.8648148 L40.025974,61.1203704 C25.987013,64.9962963 13.4415584,70.9592593 2.98701299,78.412963 C2.98701299,78.412963 2.98701299,78.412963 2.98701299,78.412963 C2.98701299,78.412963 2.68831169,78.412963 2.68831169,78.7111111 C2.68831169,78.7111111 2.68831169,78.7111111 2.38961039,79.0092593 C2.38961039,79.0092593 2.38961039,79.0092593 2.09090909,79.3074074 C2.09090909,79.3074074 2.09090909,79.6055556 1.79220779,79.6055556 C1.79220779,79.6055556 1.79220779,79.6055556 1.49350649,79.9037037 C1.49350649,79.9037037 1.49350649,80.2018519 1.19480519,80.2018519 C1.19480519,80.2018519 1.19480519,80.2018519 1.19480519,80.5 C1.19480519,80.5 1.19480519,80.7981481 0.896103896,80.7981481 C0.896103896,80.7981481 0.896103896,81.0962963 0.896103896,81.0962963 C0.896103896,81.0962963 0.896103896,81.3944444 0.896103896,81.3944444 C0.896103896,81.3944444 0.896103896,81.6925926 0.896103896,81.6925926 C0.896103896,81.6925926 0.896103896,81.9907407 0.896103896,81.9907407 C0.896103896,81.9907407 0.896103896,82.2888889 0.896103896,82.2888889 C0.896103896,82.2888889 0.896103896,82.587037 0.896103896,82.587037 C0.896103896,82.587037 0.896103896,82.8851852 0.896103896,82.8851852 C0.896103896,82.8851852 0.896103896,83.1833333 0.896103896,83.1833333 C0.896103896,83.1833333 0.896103896,83.4814815 0.896103896,83.4814815 C0.896103896,83.4814815 0.896103896,83.7796296 0.896103896,83.7796296 C0.896103896,83.7796296 0.896103896,83.7796296 0.896103896,83.7796296 L0.896103896,117.47037 C0.896103896,120.451852 2.98701299,122.837037 5.67532468,123.135185 L5.67532468,215.561111 L5.67532468,215.859259 C5.67532468,219.138889 8.36363636,221.822222 11.6493506,221.822222 L150.545455,221.822222 C153.831169,221.822222 156.519481,219.138889 156.519481,215.859259 L156.519481,215.561111 L156.519481,122.837037 C158.909091,122.240741 160.701299,119.855556 160.701299,117.172222 L160.402597,83.4814815 C160.402597,83.4814815 160.402597,83.4814815 160.402597,83.4814815 Z M77.6623377,209.896296 L77.6623377,123.135185 L89.9090909,123.135185 L89.9090909,209.896296 L77.6623377,209.896296 Z M42.7142857,209.896296 L42.7142857,123.135185 L65.7142857,123.135185 L65.7142857,209.896296 L42.7142857,209.896296 Z M90.5064935,111.507407 L76.7662338,111.507407 L76.7662338,89.4444444 L90.5064935,89.4444444 L90.5064935,111.507407 Z M39.7272727,111.507407 L39.7272727,89.4444444 L65.1168831,89.4444444 L65.1168831,111.507407 L39.7272727,111.507407 L39.7272727,111.507407 Z M132.324675,77.8166667 L96.1818182,77.8166667 L33.7532468,77.8166667 L28.3766234,77.8166667 C43.6103896,71.5555556 61.5324675,67.9777778 80.0519481,67.9777778 C99.1688312,67.9777778 117.38961,71.2574074 132.324675,77.8166667 Z M65.1168831,26.5351852 L51.6753247,26.5351852 L51.6753247,13.1185185 C60.6363636,14.6092593 63.9220779,19.3796296 65.1168831,26.5351852 Z M51.6753247,38.162963 L65.4155844,38.162963 L65.4155844,56.9462963 C60.6363636,57.5425926 56.1558442,58.1388889 51.6753247,58.7351852 L51.6753247,38.162963 Z" id="Shape"></path>
        </g>
    </g>
</svg>