<?xml version="1.0" encoding="UTF-8"?>
<svg width="68px" height="94px" viewBox="0 0 68 94" version="1.1" xmlns="http://www.w3.org/2000/svg" xmlns:xlink="http://www.w3.org/1999/xlink">
    <!-- Generator: Sketch 44.1 (41455) - http://www.bohemiancoding.com/sketch -->
    <title>fermentor</title>
    <desc>Created with Sketch.</desc>
    <defs></defs>
    <g id="Page-1" stroke="none" stroke-width="1" fill="none" fill-rule="evenodd">
        <g id="noun_Conical-Fermenter_27777" fill-rule="nonzero" fill="#000000">
            <g id="Group">
                <g transform="translate(2.000000, 51.000000)" id="Shape">
                    <path d="M8.142,38.98 C8.142,41.199 6.343,43 4.123,43 L4.123,43 C1.904,43 0.104,41.199 0.104,38.98 L0.104,2.97 L4.123,9.156 L4.123,7.287 L8.142,13.905 L8.142,38.98 L8.142,38.98 Z"></path>
                    <path d="M63.896,38.98 C63.896,41.199 62.098,43 59.878,43 L59.878,43 C57.658,43 55.859,41.199 55.859,38.98 L55.859,13.76 L59.878,8.868 L59.878,8.868 L63.896,0.942 L63.896,38.98 Z"></path>
                </g>
                <path d="M34.105,2.001 C41.684,2.001 49.263,3.066 49.263,5.198 L49.263,9.126 C58.373,10.302 65.176,12.621 65.176,16.084 L65.176,49.958 C65.176,59.014 34,86.73 34,86.73 C34,86.73 2.824,59.014 2.824,49.958 L2.824,16.084 C2.824,12.594 9.733,10.267 18.947,9.1 L18.947,5.198 C18.947,3.066 26.526,2.001 34.105,2.001 L34.105,2.001 Z M34.105,0.001 C22.72,0.001 16.947,1.749 16.947,5.198 L16.947,7.355 C6.246,8.926 0.824,11.86 0.824,16.085 L0.824,49.959 C0.824,51.559 0.824,56.428 16.974,73.131 C24.731,81.154 32.593,88.156 32.671,88.227 L34,89.406 L35.329,88.225 C35.407,88.155 43.268,81.153 51.025,73.129 C67.175,56.426 67.175,51.557 67.175,49.957 L67.175,16.084 C67.175,11.888 61.823,8.964 51.262,7.384 L51.262,5.198 C51.263,1.749 45.49,0.001 34.105,0.001 L34.105,0.001 Z" id="Shape"></path>
                <path d="M6.375,32.005 L6.375,47.899 C6.375,55.923 34,80.483 34,80.483 C34,80.483 61.625,55.922 61.625,47.898 L61.625,32.67 C61.625,32.67 55.252,26.208 45.248,26.208 C35.244,26.208 25.307,32.562 17.859,32.562 C10.411,32.562 6.375,32.005 6.375,32.005 Z M17.976,51.747 C15.757,51.747 13.958,49.949 13.958,47.731 C13.958,45.513 15.757,43.715 17.976,43.715 C20.192,43.715 21.991,45.512 21.991,47.731 C21.991,49.95 20.192,51.747 17.976,51.747 Z M24.835,42.013 C23.293,42.013 22.043,40.763 22.043,39.221 C22.043,37.679 23.294,36.429 24.835,36.429 C26.376,36.429 27.627,37.679 27.627,39.221 C27.628,40.763 26.376,42.013 24.835,42.013 Z" id="Shape"></path>
            </g>
        </g>
    </g>
</svg>