<?xml version="1.0" encoding="UTF-8"?>
<svg width="64px" height="91px" viewBox="0 0 64 91" version="1.1" xmlns="http://www.w3.org/2000/svg" xmlns:xlink="http://www.w3.org/1999/xlink">
    <!-- Generator: Sketch 44.1 (41455) - http://www.bohemiancoding.com/sketch -->
    <title>Untitled</title>
    <desc>Created with Sketch.</desc>
    <defs></defs>
    <g id="Page-1" stroke="none" stroke-width="1" fill="none" fill-rule="evenodd">
        <g id="noun_Beer-Tap_1028552" fill-rule="nonzero" fill="#000000">
            <path d="M63.252,84.695 C63.387,86.714 62.585,88.021 61.888,88.765 C60.943,89.777 59.583,90.377 58.251,90.377 C57.012,90.377 55.741,89.805 54.853,88.846 C54.157,88.094 53.361,86.761 53.521,84.679 C53.872,80.134 57.398,74.674 57.547,74.442 C57.732,74.158 58.044,73.86 58.383,73.86 C58.723,73.86 59.045,74.161 59.227,74.447 C59.38,74.684 62.958,80.307 63.252,84.695 Z M63,34 L59,34 L59,31.794 C59.552,31.793 60,31.347 60,30.794 L60,27.032 C60,26.479 59.484,26 58.828,26 L58.433,26 C58.433,26 59.333,22.829 59.337,22.804 L61.601,7.484 C61.799,5.673 61.216,3.862 60,2.505 C58.785,1.149 56.738,0.373 54.917,0.373 C53.097,0.373 51.047,1.151 49.832,2.507 C48.616,3.863 48.032,5.679 48.235,7.528 L50.495,22.818 C50.498,22.844 51.398,26 51.398,26 L51.063,26 C50.51,26 50,26.569 50,27.122 L50,30.95 C50,31.906 51,32 51,32 L51,34 L36.079,34 L23,30.653 L23,30.015 C23,29.462 22.573,29 22.021,29 L16.114,29 C15.561,29 15,29.462 15,30.015 L15,31 L14,31 L14,29.271 C14,28.718 13.604,28 12.792,28 L1.269,28 C0.352,28 0,28.5 0,29.271 L0,47.917 C0,48.583 0.208,49 0.914,49 L12.999,49 C13.675,49 14,48.604 14,48.084 L14,46 L15,46 L15,46.255 C15,46.808 15.153,47 15.706,47 L22.25,47 C22.803,47 23,46.808 23,46.255 L23,45.58 L36.051,43 L39.588,43 C41.632,43 43.505,44.2 44.359,46.058 L55.465,70.206 C55.632,70.569 55.992,70.788 56.373,70.788 C56.481,70.788 56.592,70.77 56.699,70.733 L60.928,69.274 C61.418,69.105 61.698,68.588 61.572,68.086 L55.362,43.327 C55.337,43.223 55.374,43.147 55.41,43.101 C55.447,43.055 55.513,43 55.619,43 L63,43 C63.553,43 64,42.553 64,42 L64,40 L64,36 L64,35 C64,34.447 63.553,34 63,34 Z" id="Shape"></path>
        </g>
    </g>
</svg>